<svg xmlns="http://www.w3.org/2000/svg" width="22" height="25" viewBox="0 0 22 25">
    <g fill="#515151" fill-rule="evenodd">
        <path d="M15.33 10.33a.94.94 0 0 0-.94-.939H4.717a.94.94 0 1 0 0 1.879h9.673a.94.94 0 0 0 .94-.94zM4.717 13.148a.94.94 0 1 0 0 1.878h5.875a.94.94 0 1 0 0-1.878H4.717z"/>
        <path d="M6.924 22.163h-3.14a1.88 1.88 0 0 1-1.879-1.878V3.757a1.88 1.88 0 0 1 1.878-1.879H15.33a1.88 1.88 0 0 1 1.879 1.879v5.775a.94.94 0 1 0 1.878 0V3.757A3.76 3.76 0 0 0 15.329 0H3.783A3.76 3.76 0 0 0 .027 3.757v16.528a3.76 3.76 0 0 0 3.756 3.757h3.141a.94.94 0 1 0 0-1.879z"/>
        <path fill-rule="nonzero" d="M20.75 13.597a2.82 2.82 0 0 0-3.984 0L11.61 18.74a.94.94 0 0 0-.236.392l-1.122 3.697a.94.94 0 0 0 1.149 1.178l3.79-1.05a.939.939 0 0 0 .413-.24l5.145-5.136a2.82 2.82 0 0 0 0-3.985zm-6.298 7.616l-1.907.529.558-1.838 3.48-3.47 1.328 1.327-3.459 3.452zm4.97-4.96l-.182.182-1.328-1.329.181-.18a.94.94 0 0 1 1.329 1.327z"/>
        <path d="M14.39 5.635H4.717a.94.94 0 1 0 0 1.878h9.673a.94.94 0 1 0 0-1.878z"/>
    </g>
</svg>
