<svg xmlns="http://www.w3.org/2000/svg" width="24" height="21" viewBox="0 0 24 21">
    <g fill="none" fill-rule="evenodd">
        <path d="M-3-4h28.8v28.8H-3z"/>
        <g fill="#FFF" fill-rule="nonzero">
            <path d="M7.8 16.4l3.6-3.528a11.209 11.209 0 0 0-1.2-.072c-3.204 0-9.6 1.608-9.6 4.8V20h10.8l-3.6-3.6zm2.4-6c2.652 0 4.8-2.148 4.8-4.8C15 2.948 12.852.8 10.2.8a4.799 4.799 0 0 0-4.8 4.8c0 2.652 2.148 4.8 4.8 4.8"/>
            <path d="M15.564 20.6L11.4 16.4l1.68-1.692 2.484 2.496L21.72 11l1.68 1.692z"/>
        </g>
    </g>
</svg>
