<svg xmlns="http://www.w3.org/2000/svg" width="25" height="24" viewBox="0 0 25 24">
    <g fill="none" fill-rule="evenodd">
        <path fill="#FFF" fill-rule="nonzero" d="M22 5.2h-2.616c.132-.372.216-.78.216-1.2A3.595 3.595 0 0 0 13 2.02l-.6.804-.6-.816A3.614 3.614 0 0 0 8.8.4 3.595 3.595 0 0 0 5.2 4c0 .42.084.828.216 1.2H2.8A2.382 2.382 0 0 0 .412 7.6L.4 20.8c0 1.332 1.068 2.4 2.4 2.4H22c1.332 0 2.4-1.068 2.4-2.4V7.6c0-1.332-1.068-2.4-2.4-2.4zm-6-2.4c.66 0 1.2.54 1.2 1.2 0 .66-.54 1.2-1.2 1.2-.66 0-1.2-.54-1.2-1.2 0-.66.54-1.2 1.2-1.2zm-7.2 0c.66 0 1.2.54 1.2 1.2 0 .66-.54 1.2-1.2 1.2-.66 0-1.2-.54-1.2-1.2 0-.66.54-1.2 1.2-1.2zm13.2 18H2.8v-2.4H22v2.4zm0-6H2.8V7.6h6.096L6.4 10.996 8.344 12.4 11.2 8.512l1.2-1.632 1.2 1.632 2.856 3.888 1.944-1.404L15.904 7.6H22v7.2z"/>
        <path d="M-2-2h28.8v28.8H-2z"/>
    </g>
</svg>
