<svg xmlns="http://www.w3.org/2000/svg" width="23" height="23" viewBox="0 0 23 23">
    <g fill="none" fill-rule="evenodd">
        <path d="M-3-3h28.8v28.8H-3z"/>
        <path fill="#FFF" fill-rule="nonzero" d="M12.6.6h-2.4v12h2.4V.6zm5.796 2.604l-1.704 1.704A8.304 8.304 0 0 1 19.8 11.4c0 4.644-3.756 8.4-8.4 8.4A8.394 8.394 0 0 1 3 11.4a8.373 8.373 0 0 1 3.096-6.504L4.404 3.204C2.076 5.184.6 8.112.6 11.4c0 5.964 4.836 10.8 10.8 10.8s10.8-4.836 10.8-10.8c0-3.288-1.476-6.216-3.804-8.196z"/>
    </g>
</svg>
