<svg xmlns="http://www.w3.org/2000/svg" width="200" height="25" viewBox="0 0 200 25">
    <path fill="#FFF" fill-rule="evenodd" d="M199.73 13.185v-1.603c0-1.832-.492-3.282-1.476-4.35-.986-1.07-2.377-1.604-4.177-1.604-1.736 0-3.197.599-4.387 1.796-1.19 1.198-1.784 2.82-1.784 4.869 0 1.977.55 3.517 1.65 4.622 1.103 1.105 2.65 1.657 4.642 1.657 1.824 0 3.306-.304 4.447-.915v-2.748c-1.029.643-2.221.964-3.579.964-2.13 0-3.259-.896-3.387-2.688h8.05zm-3.532-2.338h-4.543c.097-.756.367-1.386.813-1.892.446-.507.974-.76 1.585-.76 1.43 0 2.145.885 2.145 2.652zm-9.824-7.425c.406-.368.609-.843.609-1.421 0-.571-.203-1.037-.609-1.399-.406-.361-.934-.542-1.585-.542-.643 0-1.169.18-1.579.542-.41.362-.614.828-.614 1.399 0 .554.205 1.022.614 1.403.41.383.936.573 1.579.573.651 0 1.179-.184 1.585-.555zm-3.512 14.921c0 1.88-.6 2.82-1.797 2.82-.41 0-.88-.148-1.41-.445v2.99c.66.24 1.265.36 1.82.36 1.679 0 2.965-.546 3.857-1.638.891-1.093 1.338-2.552 1.338-4.376V5.93h-3.808v12.414zm-2.391-14.92c.406-.37.608-.844.608-1.422 0-.571-.202-1.037-.608-1.399-.406-.361-.934-.542-1.585-.542-.643 0-1.17.18-1.579.542-.41.362-.615.828-.615 1.399 0 .554.205 1.022.615 1.403.41.383.936.573 1.58.573.65 0 1.178-.184 1.584-.555zm-9.09 14.848h3.797v-7.557c0-3.39-1.365-5.086-4.097-5.086-1.736 0-3.058.752-3.966 2.254h-.048V5.929h-3.809v12.342h3.809v-7.038c0-.78.213-1.423.64-1.929a2.03 2.03 0 0 1 1.625-.759c1.366 0 2.05.956 2.05 2.868v6.858zm-17.304-5.086h8.052v-1.603c0-1.832-.493-3.282-1.478-4.35-.984-1.07-2.376-1.604-4.176-1.604-1.735 0-3.198.599-4.387 1.796-1.19 1.198-1.784 2.82-1.784 4.869 0 1.977.551 3.517 1.651 4.622 1.102 1.105 2.649 1.657 4.64 1.657 1.824 0 3.308-.304 4.449-.915v-2.748c-1.03.643-2.222.964-3.58.964-2.13 0-3.258-.896-3.387-2.688zm-.024-2.338c.096-.756.368-1.386.813-1.892.447-.507.975-.76 1.585-.76 1.43 0 2.146.885 2.146 2.652h-4.544zm-7.628 7.424l4.591-12.342h-3.976l-2.193 7.678c-.243.844-.391 1.55-.447 2.12h-.048c-.04-.601-.181-1.332-.422-2.192l-2.146-7.606h-4.072l4.374 12.342h4.34zm-8.075-6.34c0-1.895-.583-3.42-1.747-4.573-1.166-1.153-2.773-1.73-4.822-1.73-2.08 0-3.731.577-4.953 1.73-1.221 1.153-1.832 2.75-1.832 4.79 0 1.977.588 3.542 1.765 4.695 1.177 1.153 2.794 1.73 4.852 1.73 2.089 0 3.733-.595 4.935-1.784 1.202-1.189 1.802-2.808 1.802-4.857zm-3.88.073c0 2.435-.913 3.652-2.736 3.652-1.912 0-2.87-1.185-2.87-3.556 0-1.133.25-2.009.748-2.627.498-.619 1.198-.928 2.097-.928 1.84 0 2.76 1.153 2.76 3.459zm-14.52 6.267h3.81V0h-3.81v18.271zm-1.907-2.429c.364-.654.547-1.464.547-2.428 0-.699-.103-1.311-.313-1.838a4.298 4.298 0 0 0-.904-1.404 6.645 6.645 0 0 0-1.416-1.103 15.084 15.084 0 0 0-1.862-.922c-.505-.209-.96-.412-1.362-.609a6.862 6.862 0 0 1-1.024-.602 2.63 2.63 0 0 1-.651-.651 1.364 1.364 0 0 1-.228-.777c0-.266.067-.504.203-.718.138-.212.33-.395.579-.548.249-.152.555-.271.917-.356a5.327 5.327 0 0 1 1.205-.126c.321 0 .66.024 1.018.073a7.903 7.903 0 0 1 2.133.602c.342.153.657.33.947.53V1.361a9.457 9.457 0 0 0-1.923-.5A15.65 15.65 0 0 0 113.517.7c-.916 0-1.784.098-2.604.295-.82.197-1.54.504-2.163.922a4.625 4.625 0 0 0-1.477 1.597c-.361.647-.542 1.42-.542 2.32 0 1.15.331 2.13.995 2.941.662.812 1.669 1.499 3.018 2.06.53.218 1.025.43 1.484.64.458.209.852.426 1.186.65.333.225.596.47.79.736.193.265.289.566.289.904 0 .249-.06.48-.181.693-.12.213-.304.397-.548.554-.245.157-.55.28-.916.367a5.512 5.512 0 0 1-1.284.134 7.4 7.4 0 0 1-4.76-1.76v3.856c.626.322 1.367.563 2.224.724.855.16 1.756.24 2.705.24.924 0 1.802-.088 2.634-.264.832-.177 1.56-.469 2.188-.875a4.448 4.448 0 0 0 1.488-1.59zm-21.776 2.43h3.604v-7.377c0-3.511-1.76-5.267-5.28-5.267-.755 0-1.592.105-2.512.313-.92.21-1.645.45-2.175.724v2.868c1.325-.876 2.723-1.314 4.193-1.314 1.464 0 2.194.675 2.194 2.026l-3.35.445c-2.836.37-4.255 1.752-4.255 4.146 0 1.134.344 2.04 1.031 2.718.687.68 1.629 1.018 2.826 1.018 1.624 0 2.849-.69 3.676-2.072h.048v1.771zm.024-5.015c0 .756-.225 1.38-.675 1.875-.45.494-1.032.74-1.747.74-.515 0-.923-.137-1.223-.415-.303-.277-.453-.632-.453-1.067 0-.956.619-1.514 1.856-1.675l2.242-.289v.831zm-10.513 5.315c1.132 0 1.98-.148 2.542-.446v-2.819c-.425.233-.839.349-1.241.349-1.02 0-1.53-.643-1.53-1.928v-4.99h2.771V5.929H85.55V2.181l-3.797 1.085V5.93H79.75v2.809h2v5.652c0 2.788 1.343 4.182 4.027 4.182zm-6-4.073c0-.522-.078-.972-.235-1.35a2.898 2.898 0 0 0-.676-.988 4.393 4.393 0 0 0-1.054-.736 11.123 11.123 0 0 0-1.374-.578 59.88 59.88 0 0 0-.85-.283 5.506 5.506 0 0 1-.777-.313 1.855 1.855 0 0 1-.566-.417.83.83 0 0 1-.217-.578c0-.169.048-.32.143-.452.097-.133.23-.241.399-.325.169-.085.363-.149.584-.193.222-.044.457-.067.705-.067.53 0 1.07.071 1.622.211.55.141 1.066.352 1.548.633v-2.94a12.545 12.545 0 0 0-1.663-.368 11.233 11.233 0 0 0-1.663-.127c-.699 0-1.372.075-2.018.223a5.514 5.514 0 0 0-1.725.7 3.7 3.7 0 0 0-1.205 1.222c-.302.5-.452 1.093-.452 1.785 0 .505.067.944.199 1.313.133.37.325.696.578.977.254.28.567.527.94.74.374.213.806.413 1.296.597.305.12.623.23.952.326.33.096.633.204.91.325.278.12.505.262.681.422.176.16.265.361.265.602 0 .378-.195.66-.584.844-.39.185-.922.277-1.598.277a6.2 6.2 0 0 1-1.765-.277 8.1 8.1 0 0 1-1.874-.844v3.086c1.157.418 2.414.626 3.773.626.739 0 1.452-.074 2.14-.223a5.739 5.739 0 0 0 1.819-.71 3.807 3.807 0 0 0 1.265-1.266c.318-.518.477-1.143.477-1.874zM76.416 3.977L79.283.06h-2.471l-1.88 2.266L73.064.06h-2.47l2.832 3.917h2.99zm-8.343 12.812c1.202-1.189 1.803-2.808 1.803-4.857 0-1.896-.583-3.421-1.748-4.574-1.166-1.153-2.772-1.73-4.822-1.73-2.08 0-3.732.577-4.953 1.73-1.22 1.153-1.833 2.75-1.833 4.79 0 1.977.59 3.542 1.766 4.695 1.177 1.153 2.795 1.73 4.852 1.73 2.089 0 3.734-.595 4.935-1.784zm-2.079-4.785c0 2.435-.912 3.652-2.736 3.652-1.912 0-2.868-1.185-2.868-3.556 0-1.133.249-2.009.747-2.627.499-.619 1.198-.928 2.098-.928 1.84 0 2.76 1.153 2.76 3.459zm-11.288-1.295c1.25-1.073 1.873-2.478 1.873-4.213 0-3.672-2.176-5.508-6.532-5.508h-6.098v17.283h3.893v-5.954h1.856c2.09 0 3.759-.536 5.008-1.608zM52.483 6.64c0 1.816-1.037 2.723-3.11 2.723h-1.531V3.977h1.531c2.073 0 3.11.888 3.11 2.664zM34.996 1.749L35 1.69a.703.703 0 0 0-.702-.703H26.63a.703.703 0 0 0-.703.702v2.41c0 .387.315.701.703.701h3.714c-1.928 7.016-7.131 12.043-13.248 12.043a6.021 6.021 0 1 1 4.17-1.68c1.231-.532 2.4-1.304 3.479-2.301.87-.806 1.66-1.741 2.358-2.79C26.72 4.88 22.387.785 17.096.785 11.554.785 7.06 5.278 7.06 10.821c0 5.542 4.493 10.035 10.035 10.035 9.152 0 16.711-8.32 17.9-19.107zm-28.74 9.072c0-.623.054-1.238.155-1.84-1.205-2.14-2.04-4.655-2.384-7.385h-.002a.702.702 0 0 0-.695-.61H.703a.703.703 0 0 0-.7.749c.732 6.483 3.831 12.03 8.19 15.272a10.76 10.76 0 0 1-1.936-6.186zm170.7 7.45h3.81V5.93h-3.81v12.342z" opacity=".7"/>
</svg>
