<svg xmlns="http://www.w3.org/2000/svg" width="24" height="25" viewBox="0 0 24 25">
    <g fill="none" fill-rule="evenodd">
        <path fill="#1F405F" fill-rule="nonzero" d="M16.832 15.456H15.77l-.376-.363a8.697 8.697 0 0 0 2.11-5.685A8.736 8.736 0 0 0 8.768.672 8.736 8.736 0 0 0 .032 9.408a8.736 8.736 0 0 0 8.736 8.736 8.697 8.697 0 0 0 5.685-2.11l.363.376v1.062l6.72 6.707 2.003-2.003-6.707-6.72zm-8.064 0A6.04 6.04 0 0 1 2.72 9.408 6.04 6.04 0 0 1 8.768 3.36a6.04 6.04 0 0 1 6.048 6.048 6.04 6.04 0 0 1-6.048 6.048z"/>
        <path d="M-4 2.24h20.16V22.4H-4z"/>
    </g>
</svg>
