<svg xmlns="http://www.w3.org/2000/svg" width="23" height="23" viewBox="0 0 23 23">
    <g fill="none" fill-rule="evenodd">
        <path d="M-3-3h28.8v28.8H-3z"/>
        <path fill="#FFF" fill-rule="nonzero" d="M11.4 9C10.08 9 9 10.08 9 11.4c0 1.32 1.08 2.4 2.4 2.4 1.32 0 2.4-1.08 2.4-2.4 0-1.32-1.08-2.4-2.4-2.4zM19.8.6H3A2.4 2.4 0 0 0 .6 3v16.8A2.4 2.4 0 0 0 3 22.2h16.8a2.4 2.4 0 0 0 2.4-2.4V3A2.4 2.4 0 0 0 19.8.6zm-2.1 10.8c0 .276-.024.552-.06.816l1.776 1.392c.156.132.204.36.096.54l-1.68 2.904c-.108.18-.324.252-.516.18l-2.088-.84a6.436 6.436 0 0 1-1.416.828l-.312 2.22a.436.436 0 0 1-.42.36H9.72a.437.437 0 0 1-.42-.348l-.312-2.22a6.17 6.17 0 0 1-1.416-.828l-2.088.84a.425.425 0 0 1-.516-.18l-1.68-2.904a.424.424 0 0 1 .096-.54l1.776-1.392a6.405 6.405 0 0 1-.06-.828c0-.276.024-.552.06-.816L3.384 9.192a.424.424 0 0 1-.096-.54l1.68-2.904c.108-.18.324-.252.516-.18l2.088.84a6.436 6.436 0 0 1 1.416-.828L9.3 3.36A.436.436 0 0 1 9.72 3h3.36c.204 0 .384.156.42.348l.312 2.22a6.17 6.17 0 0 1 1.416.828l2.088-.84a.425.425 0 0 1 .516.18l1.68 2.904c.108.18.06.408-.096.54l-1.776 1.392c.036.276.06.552.06.828z"/>
    </g>
</svg>
